<mxfile host="app.diagrams.net" modified="2023-07-29T18:27:16.667Z" agent="Mozilla/5.0 (Windows NT 10.0; Win64; x64) AppleWebKit/537.36 (KHTML, like Gecko) Chrome/114.0.0.0 Safari/537.36" version="21.6.6" etag="rDzm7rf7mrfwJDmO0qCB" type="github">
  <diagram name="PÃ¡gina-1" id="gk1R1kvKVYMJflzbeCx7">
    <mxGraphModel>
      <root>
        <mxCell id="0" />
        <mxCell id="1" parent="0" />
      </root>
    </mxGraphModel>
  </diagram>
</mxfile>
